<svg width="164" height="164" viewBox="0 0 164 164" fill="none" xmlns="http://www.w3.org/2000/svg">
  <path fill-rule="evenodd" clip-rule="evenodd" d="M54.6879 0.857491C51.3368 1.91484 45.621 7.83926 44.5934 11.3209C44.1195 12.9264 43.7631 18.1339 43.7631 23.4527V32.7713H38.3007H32.8383V98.3857V164H82H131.162V98.3857V32.7713H125.699H120.237V23.4527C120.237 18.1339 119.88 12.9264 119.407 11.3209C118.298 7.56655 112.642 1.90459 108.891 0.795294C105.181 -0.301696 58.1921 -0.247701 54.6879 0.857491ZM107.636 12.5779C109.251 14.1936 109.312 14.5948 109.312 23.5136V32.7713H82H54.6879V23.5136C54.6879 14.5948 54.7494 14.1936 56.3642 12.5779L58.0398 10.8999H82H105.96L107.636 12.5779ZM10.9887 33.6647C7.63747 34.722 1.92174 40.6464 0.894128 44.1281C-0.298043 48.1668 -0.298043 148.605 0.894128 152.643C2.00231 156.398 7.65864 162.06 11.4093 163.169C12.9551 163.626 15.9506 164 18.0666 164H21.9135V98.3857V32.7713L17.646 32.8411C15.2992 32.8793 12.3031 33.2505 10.9887 33.6647ZM142.087 98.3857V164H145.933C148.049 164 151.045 163.626 152.591 163.169C156.341 162.06 161.998 156.398 163.106 152.643C164.298 148.605 164.298 48.1668 163.106 44.1281C161.998 40.3737 156.341 34.7118 152.591 33.6025C151.045 33.1452 148.049 32.7713 145.933 32.7713H142.087V98.3857Z" fill="#738292"/>
</svg>
