<svg width="192" height="198" viewBox="0 0 192 198" fill="none" xmlns="http://www.w3.org/2000/svg">
  <path fill-rule="evenodd" clip-rule="evenodd" d="M104.415 1.23745C103.315 1.94357 91.0939 19.0955 77.2559 39.3527L52.0964 76.1832L44.8893 76.4068L37.6821 76.6303L38.1205 74.0865C38.3614 72.6874 39.1716 64.992 39.9206 56.9856L41.2822 42.4277L43.8181 41.3697C45.2123 40.7881 47.9123 38.7107 49.8177 36.7532L53.2815 33.194L64.6626 34.3881C76.6138 35.6418 78.142 35.4206 78.142 32.4368C78.142 30.2821 76.9353 29.9008 66.9111 28.8884C51.0074 27.2813 50.9222 27.2921 47.0363 31.3927C45.1875 33.344 42.3728 35.6109 40.7819 36.4299C39.1902 37.249 37.3925 38.6976 36.7852 39.6496C35.9123 41.0194 32.4377 69.7879 32.4431 75.6032C32.4431 76.1353 31.5508 76.5699 30.4603 76.5699C28.5727 76.5699 28.4976 76.4106 28.9236 73.2829C29.1691 71.4747 30.4154 59.4845 31.6918 46.6374C32.9683 33.7895 34.2099 22.7669 34.45 22.1412C34.6908 21.5155 35.3337 20.8333 35.879 20.6238C36.4243 20.4149 47.0286 21.2471 59.4445 22.473C71.8605 23.6988 82.5406 24.5016 83.1789 24.2572C85.0246 23.5496 84.6156 20.1729 82.5956 19.4451C81.6368 19.0994 70.8009 17.8403 58.5151 16.6469C37.669 14.6213 36.0045 14.5594 33.574 15.7165C28.9623 17.9129 28.7029 18.8813 26.2561 43.024C25.0114 55.3066 23.9774 65.4429 23.9588 65.5488C23.9394 65.6548 21.9728 65.7422 19.5872 65.7422C13.6504 65.7422 10.1494 67.5311 8.3517 71.484C7.56321 73.218 6.91028 75.3797 6.90098 76.2876C6.89169 77.1956 6.01723 78.5058 4.95765 79.1995C3.89807 79.8925 2.32265 81.8469 1.45593 83.5422C-0.0877333 86.5639 -0.114843 87.6537 0.0904115 138.311L0.300316 189.996L2.38694 192.727C6.68643 198.355 0.617103 197.995 91.3093 197.995C181.998 197.995 175.931 198.355 180.232 192.728C182.317 190.001 182.318 189.996 182.556 174.276L182.794 158.551H185.496C187.332 158.551 188.807 157.943 190.098 156.653L192 154.755V137.283V119.811L190.098 117.913C188.795 116.611 187.334 116.014 185.451 116.014H182.705L182.688 101.512C182.674 89.1634 182.462 86.5516 181.262 83.9173C180.487 82.2158 179.275 80.3457 178.568 79.7626C177.809 79.1346 177.279 77.5545 177.272 75.8955C177.266 74.3518 176.825 72.2303 176.293 71.1793C174.971 68.5713 170.568 65.7422 167.829 65.7422H165.575L170.255 58.9749C175.535 51.3374 176.379 48.6715 174.748 44.7735C173.794 42.4943 168.997 38.9358 143.124 21.3152C110.396 -0.973733 108.99 -1.70229 104.415 1.23745ZM138.928 25.3315C155.029 36.2845 168.698 45.9978 169.304 46.9158C170.337 48.4789 169.804 49.4758 160.938 62.5774C152.351 75.2683 151.264 76.5699 149.249 76.5699H147.028L152.153 69.0748C157.646 61.0414 157.717 60.7127 155.316 54.5277C154.656 52.8262 154.1 49.6738 154.081 47.5214C154.063 45.3698 153.612 43.0534 153.079 42.3744C151.735 40.6605 122.514 20.8341 119.855 19.8318C118.177 19.1991 116.857 19.3136 113.987 20.3407C111.952 21.0692 108.647 21.664 106.643 21.6617C104.639 21.6593 102.183 22.0298 101.185 22.4838C100.096 22.9796 92.1101 33.9643 81.227 49.9399C64.5751 74.3812 62.9044 76.5699 60.8945 76.5699H58.7041L60.9541 73.2829C62.191 71.4747 72.6884 56.0746 84.2803 39.0595C103.655 10.622 107.493 5.41618 109.087 5.41618C109.4 5.41618 122.828 14.3785 138.928 25.3315ZM133.135 35.1043L148.238 45.4247L148.652 49.9762C148.88 52.4798 149.557 55.8255 150.157 57.4118L151.248 60.2958L145.87 68.2395L140.493 76.1832H135.493H130.493L129.887 73.2706C126.943 59.121 110.461 51.0691 97.4506 57.4249C90.7043 60.7212 85.6837 67.0725 84.6118 73.6697L84.1401 76.5699H77.2683C73.4885 76.5699 70.3966 76.4044 70.3966 76.2018C70.3966 75.9992 77.7664 65.0361 86.7735 51.8394L103.15 27.8451L106.331 27.8111C108.08 27.7925 111.254 27.1428 113.384 26.3679C115.514 25.5929 117.431 24.9193 117.644 24.8713C117.857 24.8234 124.828 29.4283 133.135 35.1043ZM116.739 63.6308C120.415 66.0601 123.577 70.4198 124.307 74.0687L124.808 76.5699H107.284C93.3966 76.5699 89.7602 76.3603 89.7602 75.5614C89.7602 73.3371 93.8668 66.521 96.3446 64.6339C100.341 61.5898 102.054 61.1033 108.032 61.3129C112.528 61.4714 114.106 61.8914 116.739 63.6308ZM23.1494 73.863V76.5699H18.1148C13.6457 76.5699 13.0803 76.4013 13.0803 75.0672C13.0803 72.8715 16.0445 71.1561 19.8366 71.1561C23.106 71.1561 23.1494 71.1909 23.1494 73.863ZM170.83 73.136C172.992 76.0881 172.213 76.5699 165.278 76.5699C161.657 76.5699 158.695 76.382 158.695 76.1523C158.695 75.9218 159.478 74.6697 160.437 73.3688C162.056 71.1723 162.45 71.03 165.989 71.3657C168.467 71.6008 170.159 72.2195 170.83 73.136ZM175.019 84.7526C176.618 86.4526 176.896 87.5114 176.896 91.9067V97.0653H91.3093H5.72213V91.9067C5.72213 87.5114 6.00019 86.4526 7.59962 84.7526L9.47789 82.7572H91.3093H173.141L175.019 84.7526ZM177.284 109.44V116.014H161.931C144.604 116.014 141.632 116.606 136.371 121.103C127.023 129.092 126.387 143.144 134.961 152.239C140.127 157.718 141.744 158.122 160.244 158.551L176.896 158.938L177.121 165.315L177.346 171.691L107.496 171.889C41.9398 172.074 37.5946 172.17 36.7922 173.44C36.1687 174.426 36.1687 175.16 36.7922 176.147C37.5946 177.416 41.9383 177.512 107.465 177.697L177.284 177.895V181.642C177.284 186.821 175.974 190.098 173.365 191.445C170.108 193.127 12.5745 193.16 9.31989 191.479C6.51139 190.029 5.33485 187.261 5.33485 182.104V177.887H13.4126C19.7228 177.887 21.756 177.621 22.7071 176.672C23.3763 176.003 23.9239 175.157 23.9239 174.793C23.9239 174.429 23.3763 173.583 22.7071 172.914C21.756 171.965 19.7228 171.699 13.4126 171.699H5.33485V137.283V102.866H91.3093H177.284V109.44ZM186.191 137.283V152.751H165.537H144.883L141.526 150.421C133.058 144.541 132.378 130.79 140.277 125.173C145.099 121.744 147.176 121.473 167.215 121.648L186.191 121.814V137.283ZM144.674 127.824C141.639 129.848 139.333 133.932 139.333 137.283C139.333 143.278 144.706 148.499 150.87 148.494C155.725 148.49 159.178 146.258 161.124 141.864C165.624 131.706 153.88 121.682 144.674 127.824ZM154.33 133.085C159.707 137.308 153.839 145.509 147.763 142.263C144.166 140.34 144.375 134.2 148.1 132.402C150.656 131.167 152.089 131.325 154.33 133.085Z" fill="black"/>
</svg>
