<svg xmlns="http://www.w3.org/2000/svg" width="16" height="12" viewBox="0 0 16 12" fill="none">
  <path d="M14.8496 1.23176C14.2283 0.610497 13.2653 0.517306 12.5509 1.01432H12.4887L6.43139 7.35124L3.60463 4.86617C3.23187 4.55554 2.76592 4.40022 2.29997 4.43128C1.80296 4.46235 1.36807 4.67979 1.05744 5.05255C0.746807 5.42531 0.59149 5.89126 0.622553 6.35721C0.653617 6.85422 0.87106 7.28911 1.24382 7.59974L5.37524 11.2342C5.71694 11.5448 6.15182 11.7001 6.58671 11.7001C7.05266 11.7001 7.54967 11.5137 7.89137 11.141L14.8806 3.81002C15.5329 3.09556 15.5329 1.94622 14.8496 1.23176Z" fill="white"/>
</svg>
