<svg width="154" height="154" viewBox="0 0 154 154" fill="none" xmlns="http://www.w3.org/2000/svg">
  <path fill-rule="evenodd" clip-rule="evenodd" d="M11.169 1.09246C4.03748 4.09466 0.504685 9.158 0.42619 16.4876C0.386701 20.1829 0.425708 20.3153 1.95854 21.6852C3.94501 23.4609 6.27918 23.5668 8.14044 21.9668C9.21579 21.0426 9.51773 20.2633 9.84087 17.5793C10.5391 11.7819 12.8382 9.61288 18.2852 9.61288C21.9128 9.61288 23.4967 10.166 25.5569 12.1525C28.3755 14.8702 28.7198 19.5321 26.3698 23.1668C25.7437 24.1353 22.1334 27.4123 18.3468 30.4492C8.0109 38.7391 3.24192 43.8058 0.916907 48.9707C-0.210928 51.4742 0.241749 53.5671 2.23111 55.0516C3.54676 56.0336 4.07408 56.0634 19.9644 56.0634H36.3421L37.7468 54.4913C39.6673 52.343 39.6664 50.0051 37.7444 48.084L36.3368 46.677H25.7052C19.5931 46.677 15.0736 46.4898 15.0736 46.2366C15.0736 45.7399 18.6709 42.5769 26.2219 36.4339C34.3633 29.8104 36.1548 27.3084 37.2431 21.0392C38.684 12.7397 34.8386 5.35291 27.2096 1.76491C24.3371 0.41375 23.4274 0.231319 18.9261 0.101354C14.4957 -0.026205 13.5355 0.0965391 11.169 1.09246ZM64.6083 0.475846C63.2151 1.28885 35.0833 35.1323 34.4028 36.8136C33.8211 38.2505 33.8485 38.6423 34.6436 40.2693C35.9944 43.0332 37.1376 43.2493 50.5893 43.2806L62.2674 43.3076V48.1134C62.2674 52.7036 62.328 52.9876 63.6235 54.4369C64.7532 55.7005 65.3316 55.9542 67.083 55.9542C68.8345 55.9542 69.4129 55.7005 70.5427 54.4369C71.8352 52.9905 71.8987 52.6978 71.8987 48.175V43.4308L73.9454 43.104C76.6836 42.6674 77.9627 41.7518 78.6214 39.7557C79.0582 38.4329 79.0264 37.7518 78.4645 36.4079C77.6573 34.4776 76.6923 33.8423 73.8852 33.3936L71.8987 33.0759V17.9379V2.79982L70.4911 1.39282C69.4167 0.318924 68.6472 -0.0108031 67.2405 0.000268036C66.2268 0.00845103 65.0422 0.222654 64.6083 0.475846ZM83.5503 2.14662C81.8417 3.58394 81.3905 5.45881 82.2554 7.52814C83.1082 9.5686 84.0376 9.9893 90.6664 11.3332C103.987 14.0351 115.342 20.2118 125.112 30.0709C145.312 50.4547 150.311 81.5058 137.508 107.08C128.572 124.929 113.21 137.354 93.5693 142.62C88.1604 144.07 87.779 144.104 77.196 144.107C66.5389 144.11 66.2687 144.085 60.7702 142.592C41.0138 137.228 25.8237 124.936 16.8843 107.08C12.7298 98.7811 10.5025 90.368 9.942 80.8565C9.6362 75.6675 9.53363 75.242 8.28877 73.9972C6.3572 72.0665 3.50005 72.1305 1.47986 74.1498L0 75.629L0.318319 81.4904C1.08161 95.5343 5.70756 109.122 13.783 121.041C18.0386 127.321 27.4658 136.595 34.0229 140.95C42.6352 146.671 50.9592 150.23 61.3042 152.615C66.9164 153.908 81.0177 154.436 87.3417 153.589C116.252 149.718 141.05 129.295 150.148 101.861C153.188 92.6977 154 87.5073 154 77.2429C154 66.941 153.189 61.7906 150.103 52.4879C141.753 27.3204 118.949 7.11659 93.03 1.92279C86.6458 0.643355 85.2998 0.675124 83.5503 2.14662ZM62.1051 33.0408C62.0015 33.1443 59.1497 33.1679 55.7681 33.0938L49.6194 32.9585L55.823 25.5211L62.0266 18.0842L62.16 25.4682C62.2332 29.5293 62.2086 32.9373 62.1051 33.0408ZM69.6147 67.0176L32.8916 103.725V105.804C32.8916 108.622 34.8637 110.697 37.5426 110.697C39.3317 110.697 40.3088 109.767 76.1202 73.9938C96.3287 53.8073 112.988 36.8031 113.14 36.2076C113.909 33.2088 111.581 30.3111 108.403 30.3111H106.338L69.6147 67.0176ZM90.3192 72.0809C87.727 74.0752 88.2003 78.5315 91.1615 80.0098C92.5908 80.7236 94.2561 80.8516 102.117 80.8521C107.216 80.8526 111.387 80.9802 111.387 81.1352C111.387 81.2902 105.89 90.0089 99.1714 100.51C92.4521 111.01 86.7094 120.075 86.4099 120.653C85.4294 122.543 85.7689 124.176 87.5016 125.908C89.6831 128.088 91.5545 128.11 93.7552 125.98C95.0569 124.721 122.786 81.9732 124.803 78.1171C125.791 76.2282 125.467 74.1536 123.945 72.633L122.538 71.226L106.97 71.2366C92.9553 71.2462 91.2944 71.3305 90.3192 72.0809Z" fill="#ff911b"/>
</svg>
