<svg width="164" height="164" viewBox="0 0 164 164" fill="none" xmlns="http://www.w3.org/2000/svg">
  <path fill-rule="evenodd" clip-rule="evenodd" d="M72.9975 0.217286C56.0825 2.36916 39.8768 9.5483 27.9774 20.1625C13.9876 32.6407 5.17224 47.7507 1.23559 65.999C-0.411863 73.6356 -0.411863 90.4895 1.23559 98.1261C6.65829 123.26 22.376 143.928 44.704 155.282C50.8457 158.405 58.9511 161.263 65.9242 162.765C73.5666 164.412 90.4334 164.412 98.0758 162.765C123.229 157.347 143.913 141.641 155.275 119.33C158.401 113.193 161.261 105.094 162.764 98.1261C164.412 90.4895 164.412 73.6356 162.764 65.999C155.739 33.431 131.699 9.04326 99.3619 1.6765C93.9939 0.45374 78.0691 -0.427827 72.9975 0.217286ZM92.8775 13.0116C102.933 14.6411 112.076 18.1629 120.582 23.683C125.8 27.0692 136.865 38.0644 140.212 43.1887C155.851 67.135 155.932 96.7543 140.424 120.615C137.035 125.829 126.032 136.886 120.904 140.23C96.939 155.857 67.297 155.938 43.418 140.442C38.0396 136.952 27.0688 125.989 23.5759 120.615C8.06783 96.7543 8.14885 67.135 23.7881 43.1887C27.1351 38.0644 38.1997 27.0692 43.418 23.683C58.3055 14.0217 75.8076 10.2455 92.8775 13.0116ZM51.427 51.5128C50.2476 52.6906 49.8483 53.7784 49.8483 55.8101C49.8483 58.4793 50.0708 58.7543 61.5612 70.2969L73.2734 82.0625L61.5612 93.8282C50.0708 105.371 49.8483 105.646 49.8483 108.315C49.8483 112.069 51.971 114.19 55.7276 114.19C58.3987 114.19 58.6739 113.967 70.2254 102.486L82 90.7825L93.7746 102.486C105.326 113.967 105.601 114.19 108.272 114.19C112.029 114.19 114.152 112.069 114.152 108.315C114.152 105.646 113.929 105.371 102.439 93.8282L90.7266 82.0625L102.439 70.2969C113.929 58.7543 114.152 58.4793 114.152 55.8101C114.152 52.0564 112.029 49.9354 108.272 49.9354C105.601 49.9354 105.326 50.1577 93.7746 61.6393L82 73.3426L70.2254 61.6393C58.6739 50.1577 58.3987 49.9354 55.7276 49.9354C53.6943 49.9354 52.6056 50.3344 51.427 51.5128Z" fill="#3AC559"/>
</svg>
