<svg width="178" height="127" viewBox="0 0 178 127" fill="none" xmlns="http://www.w3.org/2000/svg">
  <path fill-rule="evenodd" clip-rule="evenodd" d="M85.53 0.570645C84.9982 0.885195 76.5263 10.5515 66.7033 22.0515C56.8808 33.551 48.5129 43.0891 48.1079 43.2467C47.703 43.4042 38.7983 39.3066 28.32 34.14C17.8411 28.9733 8.60429 24.6114 7.7927 24.4471C4.35555 23.7491 0.00500722 27.4751 8.42085e-07 31.1215C-0.00111169 31.9517 1.10029 36.2718 2.44756 40.7218C3.79483 45.1718 6.41372 53.8956 8.2672 60.1076C29.0715 129.84 27.4883 125.418 32.0347 126.488C33.2557 126.776 58.2158 127 89 127C119.784 127 144.744 126.776 145.965 126.488C150.512 125.418 148.929 129.84 169.733 60.1076C171.586 53.8956 174.205 45.1718 175.552 40.7218C176.9 36.2718 178.001 31.9517 178 31.1215C177.995 27.4791 173.645 23.7491 170.214 24.4454C169.406 24.6097 162.505 27.8377 154.878 31.6196C134.579 41.6852 130.611 43.5268 129.862 43.2348C129.491 43.0902 121.135 33.5527 111.294 22.0397C101.452 10.5267 92.9272 0.84962 92.3493 0.535635C91.0042 -0.195115 86.7883 -0.173093 85.53 0.570645ZM105.209 36.4723C113.886 46.6119 121.677 55.7417 122.522 56.7605C124.246 58.8392 127.312 60.1076 129.355 59.5869C130.101 59.3966 137.136 56.067 144.989 52.1874C152.841 48.3077 159.343 45.2119 159.437 45.3073C159.532 45.4034 158.267 49.916 156.627 55.3362C154.987 60.7559 152.095 70.3996 150.2 76.7669C148.304 83.1341 145.796 91.5202 144.625 95.4027C143.455 99.2851 141.842 104.686 141.041 107.403L139.584 112.344H89H38.4156L36.9593 107.403C36.1583 104.686 34.5451 99.2851 33.3747 95.4027C32.2043 91.5202 29.6984 83.1341 27.806 76.7669C25.9136 70.3996 23.0227 60.7542 21.3811 55.3329C19.7396 49.9115 18.4735 45.3983 18.5675 45.3028C18.6615 45.2074 25.1771 48.3083 33.0465 52.1936C40.916 56.0788 47.9505 59.4096 48.6787 59.5954C50.6907 60.1081 53.7646 58.8268 55.4784 56.7605C63.2339 47.4115 88.6624 18.0358 89 18.0358C89.2381 18.0358 96.5324 26.3321 105.209 36.4723Z" fill="#ff911b"/>
</svg>
