<svg width="79" height="152" viewBox="0 0 79 152" fill="none" xmlns="http://www.w3.org/2000/svg">
  <path fill-rule="evenodd" clip-rule="evenodd" d="M51.1087 0.240077C37.4017 2.73351 28.6746 10.4774 24.8436 23.5459C23.7295 27.3472 23.6453 28.4248 23.4411 41.5057L23.2241 55.4216H11.612H0V68.9806V82.5397H11.6596H23.3193V117.27V152H37.3584H51.3976V117.27V82.5397H62.9896H74.5817L75.1276 78.3768C75.4274 76.0875 76.2074 70.1957 76.8608 65.2845C77.5138 60.3732 78.0482 56.1452 78.0482 55.8883C78.0482 55.5943 73.1193 55.4216 64.7229 55.4216H51.3976V45.0415C51.3976 33.0853 51.8264 30.7465 54.4938 28.1565C57.0123 25.7111 58.6922 25.3662 69.3629 25.1021L79 24.8638V12.8471V0.830489L76.5015 0.54361C71.881 0.0126662 53.563 -0.206182 51.1087 0.240077Z" fill="black"/>
</svg>
