<svg width="179" height="179" viewBox="0 0 179 179" fill="none" xmlns="http://www.w3.org/2000/svg">
  <path fill-rule="evenodd" clip-rule="evenodd" d="M38.1567 0.168452C37.2309 0.298588 34.3276 1.04967 31.7049 1.83722C23.9523 4.16563 18.1441 7.77746 12.3207 13.8921C6.92601 19.5564 4.17816 24.1386 1.60819 31.7561L0 36.524V89.2513V141.979L1.60371 147.026C4.20566 155.216 7.72057 160.866 13.8335 166.684C19.6457 172.216 24.2795 174.95 31.9854 177.397L37.0345 179H89.5H141.966L147.015 177.397C154.721 174.95 159.354 172.216 165.166 166.684C171.279 160.866 174.794 155.216 177.396 147.026L179 141.979V89.2513V36.524L177.392 31.7561C174.654 23.6417 171.13 18.0554 165.166 12.3799C159.483 6.97028 154.868 4.20826 147.296 1.68464L142.527 0.0949702L91.1834 0.0136352C62.9446 -0.0312391 39.0826 0.0383167 38.1567 0.168452ZM141.885 15.8167C149.555 17.794 157.004 23.5867 160.576 30.3537C164.234 37.284 164.13 35.5564 164.13 89.5318C164.13 143.507 164.234 141.78 160.576 148.71C158.303 153.016 153.007 158.31 148.699 160.582C141.766 164.239 143.495 164.135 89.5 164.135C35.5054 164.135 37.2337 164.239 30.3009 160.582C25.9932 158.31 20.6972 153.016 18.4241 148.71C14.7661 141.78 14.8699 143.507 14.8699 89.5318C14.8699 46.7166 14.981 40.1823 15.7587 37.1657C18.3652 27.06 26.3618 18.8799 36.4734 15.9754C39.541 15.0942 44.2197 15.0045 89.1386 14.968C132.386 14.9332 138.86 15.037 141.885 15.8167ZM135.961 30.0671C127.528 31.6164 124.223 42.025 130.107 48.4981C134.602 53.4438 143.492 52.8846 147.104 47.4296C152.777 38.8597 145.956 28.2312 135.961 30.0671ZM82.0673 45.1993C65.4203 48.2401 52.1131 59.8609 46.7358 76.0527C45.0704 81.0674 44.961 81.9015 44.961 89.5318C44.961 97.1621 45.0704 97.9962 46.7358 103.011C51.4678 117.26 61.7623 127.55 76.0161 132.281C81.0326 133.946 81.867 134.055 89.5 134.055C97.1358 134.055 97.9641 133.946 102.967 132.281C117.291 127.514 127.496 117.313 132.265 102.994C133.93 97.9928 134.039 97.1649 134.039 89.5318C134.039 81.9015 133.93 81.0674 132.264 76.0527C127.522 61.7731 117.108 51.3824 102.984 46.8367C98.5903 45.4225 96.4855 45.0798 91.1834 44.9143C87.6342 44.8033 83.5318 44.9317 82.0673 45.1993ZM96.9944 60.691C110.078 64.0633 119.24 75.9416 119.24 89.5318C119.24 106.06 106.034 119.261 89.5 119.261C72.9663 119.261 59.7602 106.06 59.7602 89.5318C59.7602 76.1688 68.52 64.539 81.3636 60.8498C85.649 59.6185 92.5609 59.5484 96.9944 60.691Z" fill="black"/>
</svg>
