<svg width="144" height="172" viewBox="0 0 144 172" fill="none" xmlns="http://www.w3.org/2000/svg">
  <path fill-rule="evenodd" clip-rule="evenodd" d="M61.6557 1.00826C46.9541 4.24384 34.5108 16.2363 30.5729 30.9641C29.262 35.8689 29.3005 46.8166 30.6472 52.0132C34.288 66.0614 46.9595 78.4504 61.0567 81.7445C67.7777 83.3149 78.3287 82.7824 84.6864 80.5512C96.688 76.3395 106.969 65.6735 110.805 53.4545C112.904 46.7682 112.843 35.1496 110.675 28.9171C108.288 22.0547 105.397 17.5613 99.8155 12.0373C89.6529 1.98035 75.6421 -2.06934 61.6557 1.00826ZM28.9014 84.2843C16.9592 87.5205 8.16419 97.5903 3.60695 113.243C-0.386374 126.961 -1.20422 146.1 1.85983 154.127C4.6875 161.533 10.6407 167.277 18.6138 170.291C22.4363 171.736 23.088 171.757 69.6349 171.958C100.222 172.089 118.134 171.914 120.624 171.461C125.991 170.485 132.294 167.232 136.036 163.507C142.631 156.942 144.854 148.292 143.716 133.616C142.363 116.159 138.597 104.342 131.4 94.9685C126.2 88.1961 116.342 83.37 107.708 83.37C103.872 83.37 103.182 83.6261 97.6962 87.0883C86.2849 94.2888 79.0479 96.5805 69.5951 95.9869C66.714 95.8061 62.3817 94.9906 59.9673 94.1752C55.8268 92.7762 53.8906 91.7537 44.1365 85.8136C40.6436 83.6866 39.5942 83.376 36.0324 83.415C33.7814 83.4406 30.5729 83.8312 28.9014 84.2843Z" fill="#738292"/>
</svg>
