<svg width="159" height="159" viewBox="0 0 159 159" fill="none" xmlns="http://www.w3.org/2000/svg">
  <path fill-rule="evenodd" clip-rule="evenodd" d="M94.7632 0.33778C91.4134 1.0247 87.2953 2.76217 84.2333 4.77959C82.4023 5.98606 66.7439 21.308 42.1238 45.9833C-1.70067 89.9073 0.562567 87.2722 0.0426969 94.9797C-0.247614 99.294 0.950976 103.663 3.38002 107.143C4.16132 108.261 15.4063 119.729 28.3692 132.627C50.0663 154.215 52.1955 156.194 55.1753 157.534C58.0311 158.818 58.9693 158.988 63.1427 158.976C71.7056 158.953 68.5052 161.659 114.22 115.8C156.753 73.1343 155.557 74.4628 158.068 67.0845C158.932 64.5441 159 62.4425 159 38.1931V12.0413L157.632 9.44457C155.653 5.68918 153.724 3.70712 150.179 1.78385L147.049 0.0862246L121.902 0.0075198C108.071 -0.0358174 95.8587 0.112626 94.7632 0.33778ZM144.853 6.86725C148.458 7.64034 151.448 10.6321 152.221 14.2381C152.933 17.5561 152.968 57.5837 152.263 62.1032C151.986 63.884 150.99 66.9102 150.05 68.828C148.451 72.0922 145.821 74.8324 108.854 111.749C66.0045 154.542 68.5954 152.255 62.9515 152.262C57.4142 152.268 58.4101 153.085 32.6282 127.399C16.0073 110.841 8.52146 103.047 7.79195 101.542C6.37476 98.6181 6.34737 94.0104 7.72871 90.9947C8.51599 89.2766 17.9862 79.5517 48.2736 49.3591C84.7392 13.0077 88.0263 9.8625 90.8258 8.64407C92.4945 7.9178 95.0714 7.12229 96.5523 6.87621C100.607 6.20324 141.722 6.19527 144.853 6.86725ZM118.167 20.4268C109.863 23.1889 104.96 31.026 106.46 39.1415C109.418 55.1469 130.835 57.904 137.788 43.1743C138.874 40.8745 139.078 39.7547 139.058 36.2005C139.037 32.6021 138.832 31.5769 137.689 29.3697C135.762 25.6472 133.815 23.6333 130.365 21.7937C126.8 19.8928 121.543 19.304 118.167 20.4268ZM127.272 27.6073C130.912 29.283 133.293 34.3022 132.376 38.3664C131.725 41.2561 129.698 43.9235 127.255 45.1066C120.523 48.3668 112.939 43.6999 112.939 36.2972C112.939 28.9563 120.391 24.4387 127.272 27.6073Z" fill="#ff911b"/>
</svg>
