<svg width="319" height="320" viewBox="0 0 319 320" fill="none" xmlns="http://www.w3.org/2000/svg">
  <path fill-rule="evenodd" clip-rule="evenodd" d="M209.027 0.204593C262.763 7.94559 303.564 44.8916 316.594 97.6086C318.607 105.752 318.942 109.608 318.942 124.609C318.942 139.61 318.607 143.466 316.594 151.609C304.619 200.058 269.937 234.737 221.527 246.67C213.292 248.699 209.631 249.005 194.027 248.965C177.149 248.922 175.279 248.724 164.027 245.783C155.469 243.546 148.197 240.742 138.672 236.008L125.318 229.371L82.1721 272.376C58.4421 296.029 37.4521 316.211 35.5271 317.225C30.7741 319.729 18.3501 319.784 13.7931 317.322C9.65012 315.083 4.05312 309.486 1.81412 305.343C-0.647882 300.786 -0.592867 288.362 1.91113 283.609C2.92513 281.684 23.1071 260.694 46.7601 236.964L89.7651 193.818L83.1281 180.464C78.3941 170.939 75.5901 163.667 73.3531 155.109C70.4121 143.857 70.2141 141.987 70.1711 125.109C70.1311 109.505 70.4371 105.844 72.4661 97.6086C84.2851 49.6596 118.649 14.9076 166.027 2.99159C173.929 1.00359 179.173 0.402593 191.027 0.124593C199.277 -0.069407 207.377 -0.0324071 209.027 0.204593ZM165.634 16.0306C126.838 26.8346 96.6681 56.9926 85.9881 95.6436C82.7491 107.368 81.5851 128.743 83.4811 141.709C90.4101 189.093 130.043 228.726 177.427 235.655C190.393 237.551 211.768 236.387 223.492 233.148C262.357 222.409 292.307 192.308 303.259 152.979C305.802 143.846 306.007 141.728 306.007 124.609C306.007 107.46 305.805 105.383 303.24 96.1666C291.245 53.0786 256.725 21.6146 212.608 13.5576C210.088 13.0976 200.602 12.8776 191.527 13.0686C177.482 13.3636 173.63 13.8036 165.634 16.0306ZM211.511 26.1426C253.413 33.7226 285.696 66.2306 293.018 108.218C304.647 174.905 244.823 234.729 178.136 223.1C123.621 213.593 86.6751 161.895 96.0361 108.218C105.562 53.5916 157.84 16.4336 211.511 26.1426ZM176.735 39.1756C160.208 42.5366 145.622 50.5266 133.034 63.1156C115.914 80.2346 107.527 100.455 107.527 124.609C107.527 148.763 115.914 168.983 133.034 186.102C150.153 203.222 170.373 211.609 194.527 211.609C218.681 211.609 238.901 203.222 256.02 186.102C273.14 168.983 281.527 148.763 281.527 124.609C281.527 100.455 273.14 80.2346 256.02 63.1156C243.676 50.7716 229.011 42.6306 213.027 39.2516C203.635 37.2656 186.305 37.2296 176.735 39.1756ZM198.277 51.0846C201.092 53.1326 201.246 57.6486 198.583 60.0576C197.342 61.1806 193.93 62.1206 189.147 62.6566C179.207 63.7716 174.397 65.1436 166.559 69.1006C154.022 75.4286 143.243 86.3896 137.989 98.1486C135.363 104.028 133.472 105.859 130.027 105.859C122.827 105.859 122.842 98.8936 130.069 86.7446C135.816 77.0836 145.896 66.7396 155.232 60.9246C168.496 52.6636 192.811 47.1046 198.277 51.0846ZM129.828 120.389C133.638 124.599 130.458 131.078 124.897 130.434C123.076 130.223 121.552 129.144 120.559 127.359C119.183 124.89 119.183 124.328 120.558 121.859C122.491 118.388 127.324 117.622 129.828 120.389ZM88.5201 213.116L80.0561 221.624L88.7841 230.352L97.5121 239.08L106.02 230.616C110.699 225.962 114.527 221.882 114.527 221.551C114.527 220.579 99.1261 204.927 98.0051 204.761C97.4431 204.677 93.1741 208.437 88.5201 213.116ZM12.5271 294.494C12.5271 299.205 12.9131 300.195 15.9271 303.209C18.9401 306.222 19.9311 306.609 24.6381 306.609H29.9491L59.2391 277.38L88.5301 248.151L79.7821 239.363L71.0341 230.574L41.7811 259.876L12.5271 289.178V294.494Z" fill="#ff911b"/>
</svg>
