<svg width="145" height="139" viewBox="0 0 145 139" fill="none" xmlns="http://www.w3.org/2000/svg">
  <path fill-rule="evenodd" clip-rule="evenodd" d="M68.7627 1.01711C66.0975 2.63096 66.9585 0.886026 55.282 28.3324C51.992 36.066 49.0624 42.6316 48.7722 42.9228C48.4458 43.2499 40.1908 44.1743 27.1599 45.3427C4.04037 47.416 3.14486 47.5957 1.33299 50.529C-0.656626 53.7494 -0.40951 57.1341 2.01086 59.8143C2.86419 60.7596 10.4023 67.5316 18.7621 74.8638C28.0518 83.0115 33.9612 88.5089 33.9612 89.0029C33.9612 89.4474 31.9208 98.784 29.427 109.751C26.9332 120.717 24.8928 130.521 24.8928 131.536C24.8928 136.192 29.7027 139.961 34.0963 138.747C35.0281 138.49 43.971 133.392 53.9698 127.417C63.9687 121.443 72.3157 116.554 72.5188 116.554C72.7224 116.554 80.6061 121.167 90.0386 126.803C108.794 138.011 109.235 138.261 111.218 138.83C113.946 139.613 117.933 137.596 119.448 134.667C119.813 133.96 120.111 132.55 120.111 131.534C120.111 129.963 116.37 112.645 112.141 94.6364C111.507 91.9367 111.052 89.3385 111.129 88.8627C111.206 88.3869 118.411 81.7528 127.139 74.1199C138.019 64.6055 143.33 59.6596 144.029 58.39C145.333 56.0232 145.324 53.714 143.999 51.2075C142.046 47.5136 141.811 47.4609 117.844 45.3237C104.928 44.172 96.5556 43.2403 96.2319 42.9183C95.7762 42.4652 93.1454 36.4148 81.8045 9.73545C79.0703 3.30363 78.3648 2.20187 76.2033 0.986719C73.8442 -0.33956 70.9836 -0.32822 68.7627 1.01711Z" fill="#FDC500"/>
</svg>
