<svg width="160" height="139" viewBox="0 0 160 139" fill="none" xmlns="http://www.w3.org/2000/svg">
  <path fill-rule="evenodd" clip-rule="evenodd" d="M152.251 0.747886C151.426 1.13586 148.725 2.22579 146.25 3.16923C121.84 12.4751 3.42268 58.2536 2.38313 58.7866C-0.198 60.1105 -0.780028 63.0518 1.11807 65.1787C1.94961 66.1106 7.12937 68.261 20.9651 73.4181L39.6865 80.3972L46.7984 103.262C50.71 115.837 54.1892 126.647 54.5307 127.285C55.2468 128.623 57.9059 129.66 59.2945 129.142C59.818 128.947 64.8588 125.042 70.4965 120.465C76.1343 115.886 81.3486 111.751 82.0836 111.274C83.4942 110.358 85.5693 110.109 87.2754 110.65C87.8379 110.829 96.9499 117.265 107.524 124.953C124.046 136.965 127.001 138.933 128.537 138.95C132.245 138.989 131.21 142.976 146.266 70.6733C153.82 34.4032 159.999 4.21116 160 3.5802C160 2.94874 159.448 1.88031 158.773 1.20536C157.356 -0.21155 154.687 -0.399039 152.251 0.747886ZM125.393 29.5425C125.551 30.3649 124.528 31.3399 84.4267 68.5925C70.7075 81.3366 63.8247 88.0702 63.2177 89.3411C62.7081 90.408 61.7886 95.0072 61.0926 99.9714C60.418 104.784 59.583 109.025 59.2365 109.397C58.0329 110.691 56.5588 109.594 55.7653 106.814C48.5654 81.5816 48.0014 79.3073 48.4904 77.4909C48.7594 76.4924 49.6135 75.068 50.389 74.3251C52.3726 72.4247 123.586 28.5226 124.494 28.6406C124.903 28.6941 125.308 29.0995 125.393 29.5425Z" fill="black"/>
</svg>
