<svg width="169" height="169" viewBox="0 0 169 169" fill="none" xmlns="http://www.w3.org/2000/svg">
  <path fill-rule="evenodd" clip-rule="evenodd" d="M69.4864 0.989635C58.6781 2.94945 45.8958 8.22189 36.5316 14.5826C30.8845 18.4184 21.0459 27.9162 16.5815 33.8419C12.1431 39.7336 6.58044 50.4953 4.07351 58.0412C-1.36132 74.399 -1.35771 94.5688 4.08361 110.859C8.22165 123.248 14.3345 133.35 23.4359 142.838C30.7603 150.474 36.8319 155.06 45.5304 159.529C58.5222 166.204 70.0337 169 84.5208 169C99.0079 169 110.519 166.204 123.511 159.529C132.21 155.06 138.281 150.474 145.606 142.838C161.115 126.67 169 106.989 169 84.4503C169 79.7849 168.523 73.2428 167.939 69.9114C161.837 35.0885 133.808 7.02374 99.0801 0.962176C91.6647 -0.332085 76.6982 -0.318356 69.4864 0.989635ZM101.233 17.1401C126.674 23.8296 145.804 43.3165 152.158 69.0124C154.088 76.817 153.896 93.164 151.781 101.037C148.142 114.593 143.082 123.378 133.249 133.22C123.352 143.124 113.299 148.837 99.9386 152.146C93.0936 153.841 75.9451 153.84 69.0958 152.144C43.4639 145.796 24.2352 126.908 17.2082 101.177C15.185 93.7674 15.0009 76.4528 16.866 69.0124C23.768 41.486 44.9196 21.3647 72.493 16.0966C79.6535 14.7286 94.0496 15.2511 101.233 17.1401ZM81.1424 31.4174C76.7509 33.5846 76.5783 34.7177 76.5783 61.3256C76.5783 81.4716 76.7574 85.6933 77.6946 87.6704C79.4708 91.4173 103.225 114.504 105.821 115.008C110.754 115.965 116.011 110.702 115.051 105.768C114.751 104.228 111.423 100.348 103.546 92.3532L92.4633 81.1052V59.2205C92.4633 34.7922 92.2481 33.5109 87.7859 31.3914C84.8248 29.9851 84.0378 29.9887 81.1424 31.4174Z" fill="#3AC559"/>
</svg>
