<svg width="153" height="154" viewBox="0 0 153 154" fill="none" xmlns="http://www.w3.org/2000/svg">
  <path fill-rule="evenodd" clip-rule="evenodd" d="M68.0801 0.106637C67.0926 0.229705 63.9762 0.817753 61.1548 1.41353C30.6176 7.86353 7.16587 32.3531 1.56456 63.6402C0.391353 70.1927 0.410847 82.2255 1.6056 89.1292C2.71057 95.5117 5.76182 104.886 8.54222 110.436L10.645 114.634L8.09592 124.024C3.85197 139.655 0.360063 152.416 0.0774068 153.324C-0.132918 154.002 0.0584243 154.122 0.985906 153.895C1.63227 153.738 10.4618 151.422 20.6067 148.749C30.7515 146.076 39.4082 143.883 39.8437 143.876C40.2792 143.869 42.8283 144.841 45.5086 146.035C70.8297 157.318 99.7089 154.254 121.903 137.931C127.103 134.106 135.423 125.618 138.949 120.54C160 90.2239 157.154 50.285 132.046 23.66C121.414 12.3846 108.909 5.25593 93.2165 1.52321C88.811 0.475326 86.1952 0.209623 78.8528 0.0628681C73.9153 -0.0359983 69.0676 -0.0159165 68.0801 0.106637ZM92.4311 14.6833C108.674 18.8351 122.974 29.6636 131.584 44.3303C143.092 63.9327 142.761 90.329 130.767 109.416C122.329 122.844 110.724 132.056 96.3693 136.723C89.1978 139.054 85.4488 139.593 76.5444 139.577C64.0603 139.554 54.864 137.13 44.7392 131.193L42.1742 129.689L30.4668 132.758C24.0273 134.446 18.6706 135.739 18.5624 135.63C18.4547 135.522 19.7602 130.318 21.4639 124.067L24.5613 112.701L21.9799 108.124C15.3711 96.4067 12.6282 84.0293 13.7547 71.0098C16.1026 43.8736 34.9652 21.4525 61.1548 14.6663C67.4676 13.0303 70.7851 12.7023 78.8528 12.9165C85.0272 13.0803 87.3346 13.3805 92.4311 14.6833ZM45.9395 42.2516C43.6383 43.8211 40.2485 48.8303 39.0629 52.4132C37.7861 56.2715 37.9005 62.4939 39.3261 66.7298C41.9552 74.5397 49.2822 84.9212 58.4072 93.7636C67.3132 102.394 74.217 106.675 86.2912 111.054C90.3966 112.543 91.5339 112.733 96.5607 112.772C101.994 112.814 102.351 112.748 105.756 111.066C110.455 108.744 113.435 105.718 114.472 102.214C115.566 98.5153 115.525 94.9154 114.377 93.9062C113.559 93.1863 107.352 90.0978 100.512 87.0061C96.1647 85.0412 95.8102 85.1771 91.576 90.4284C89.5158 92.9834 87.3023 95.212 86.6569 95.3804C84.9569 95.8248 76.9399 91.779 71.7982 87.882C65.9061 83.4166 57.8203 73.5243 57.8203 70.7807C57.8203 70.2642 59.2044 68.0413 60.8957 65.84C62.7014 63.4898 63.9716 61.3235 63.9736 60.5913C63.9762 59.4317 59.3742 47.7088 57.2612 43.4925C56.1172 41.2104 55.5709 40.9833 51.2284 40.9833C48.4291 40.9833 47.457 41.2165 45.9395 42.2516Z" fill="black"/>
</svg>
